<svg xmlns="http://www.w3.org/2000/svg" width="250" height="250" viewBox="0 0 250 250">
  <path d="m181.1 71.71v26c6.37-8.5 12.05-16.92 15.18-25.65l-15.18-0.35z" fill="#fff"/>
  <path d="m145.8 120.9c16.34 0 27.72-15.07 27.72-26.84v-47.41c0-9.85-6.23-20.65-19.52-25.52-8.97-3.39-18.96-5.51-33.97-5.51-14.71 0-24.06 1.89-32.96 4.86-11.21 3.87-16.5 10.12-16.5 22.82v22.27h51.48v6.13h-73.36c-14.98 0-26.47 10.03-30.92 24.45-5.94 19.23-5.21 31.9-1.69 48.8 4.16 18.95 13.59 32.43 31.09 32.43h17.34v-23.33c0-18.04 14.42-32.89 32.92-32.89l48.37-0.26zm-52.07-87.74c6.7 0 9.58 5.67 9.58 9.97 0 5.09-4.07 9.03-9.45 9.03-5.72 0-9.74-4.5-9.74-9.03 0-5.03 3.74-9.97 9.61-9.97z" fill="#fff"/>
  <path d="m146.6 127.3h-48.68c-14.87 0-27.31 12.16-27.31 27.46v26.02c29.09-6.47 56.67-24.09 85.35-54.73-2.79 0.76-5.94 1.25-9.36 1.25z" fill="#fff"/>
  <path d="m226.5 82.49 18.5 13.4-2.5-66.98-59.14 32.2 20.82 7.39c-21.35 38.44-70.82 112.4-144.1 120.7-36.03 0.83-52.97-18.25-52.24-57.88-6.92 25.66-4.14 49.61 16.13 63.84 10.91 7.25 23.8 9.83 37.71 9.6 46.09-0.75 105.8-29.8 164.8-122.2z" fill="#fff"/>
  <path d="m149.4 177.4h49.37c21.33 0 32.59-27.32 32.59-53.46 0-9.94-2.43-21.04-4.99-29.12-22 33.88-47.17 62.31-76.97 82.58z" fill="#fff"/>
  <path d="m140.4 183.9c-21.4 13.89-44.23 23.16-69.25 26.41 2.57 9.45 9.87 14.68 20.72 17.96 8.19 2.73 18.03 4.92 29.97 4.92 12.13 0 22.9-2.45 30.93-5.37 12.36-4.62 20.79-11.46 20.79-23.65v-20.27h-33.16zm10.97 31.5c-7.07 0-9.57-6.24-9.57-9.34 0-6.35 5.16-9.17 9.31-9.17 6.22 0 9.89 5.4 9.89 9.43 0 5.28-3.9 9.08-9.63 9.08z" fill="#fff"/>
</svg>
